<?xml version="1.0" encoding="UTF-8" standalone="no"?>
<svg
   id="svg10"
   version="1.1"
   viewBox="0 0 162.642 54.261"
   height="205.08"
   width="614.71"
   sodipodi:docname="title_float.svg"
   xml:space="preserve"
   inkscape:version="1.3.2 (091e20e, 2023-11-25, custom)"
   xmlns:inkscape="http://www.inkscape.org/namespaces/inkscape"
   xmlns:sodipodi="http://sodipodi.sourceforge.net/DTD/sodipodi-0.dtd"
   xmlns="http://www.w3.org/2000/svg"
   xmlns:svg="http://www.w3.org/2000/svg"
   xmlns:rdf="http://www.w3.org/1999/02/22-rdf-syntax-ns#"
   xmlns:cc="http://creativecommons.org/ns#"
   xmlns:dc="http://purl.org/dc/elements/1.1/"><sodipodi:namedview
     id="namedview2"
     pagecolor="#ffffff"
     bordercolor="#000000"
     borderopacity="0.25"
     inkscape:showpageshadow="2"
     inkscape:pageopacity="0.0"
     inkscape:pagecheckerboard="0"
     inkscape:deskcolor="#d1d1d1"
     inkscape:zoom="1.5805253"
     inkscape:cx="308.44176"
     inkscape:cy="86.363694"
     inkscape:window-width="1920"
     inkscape:window-height="1009"
     inkscape:window-x="-8"
     inkscape:window-y="-8"
     inkscape:window-maximized="1"
     inkscape:current-layer="svg10" /><metadata
     id="metadata16"><rdf:RDF><cc:Work
         rdf:about=""><dc:format>image/svg+xml</dc:format><dc:type
           rdf:resource="http://purl.org/dc/dcmitype/StillImage" /><dc:title /></cc:Work></rdf:RDF></metadata><style
     id="style1">
		#g8 {
    	animation-name: floating;
    	animation-duration: 3s;
    	animation-iteration-count: infinite;
   	 	animation-timing-function: ease-in-out;
		}

		@keyframes floating {
    	0% { transform: translate(0,  0px); }
    	50% { transform: translate(0, -5px); }
    	100% { transform: translate(0, 0px); }
		}
	</style><linearGradient
     id="myGradient"
     gradientTransform="rotate(90)"><stop
       offset="5%"
       stop-color="#A1CA03"
       id="stop1" /><stop
       offset="95%"
       stop-color="#91BA03"
       id="stop2" /></linearGradient><defs
     id="defs14" /><path
     id="path1-4"
     style="fill:#97c003;stroke-width:0.226802;fill-opacity:1"
     d="M 22.405845,40.341917 C 20.680234,40.026464 19.435806,38.868959 18.984271,37.159335 L 18.849553,36.649263 V 26.86787 17.086482 l 0.135112,-0.510074 c 0.34406,-1.298874 1.113632,-2.255358 2.243329,-2.788189 0.9335,-0.440288 0.617282,-0.4173 6.052716,-0.440028 5.230072,-0.02186 5.822749,2e-5 7.140984,0.26372 4.148108,0.829793 6.954841,3.623957 7.52979,7.496068 0.118912,0.800815 0.121269,2.270833 0.0046,3.029505 -0.216152,1.40877 -0.780076,2.755754 -1.597048,3.814704 -0.576601,0.747385 -1.576238,1.582725 -2.472127,2.065815 -0.255785,0.137927 -0.465062,0.263161 -0.465062,0.278302 0,0.01514 0.569316,0.797064 1.265148,1.737611 0.695833,0.940552 1.382081,1.931709 1.524994,2.20258 0.473671,0.897757 0.630387,1.685788 0.510048,2.564716 -0.185795,1.356981 -0.949645,2.513649 -2.033883,3.079815 -1.77352,0.926101 -3.981256,0.555821 -5.256904,-0.88168 -0.180489,-0.20339 -1.321113,-1.801009 -2.534716,-3.550254 l -2.206557,-3.180453 -0.520316,-0.01728 -0.520315,-0.01729 -0.02363,2.297599 c -0.02234,2.171444 -0.03105,2.322256 -0.158539,2.746681 -0.444264,1.47883 -1.49943,2.528978 -2.957389,2.94333 -0.494662,0.140583 -1.636074,0.205789 -2.104207,0.120214 z M 31.64416,25.475701 c 0.733062,-0.244008 1.281584,-0.698155 1.522735,-1.260749 0.542925,-1.266593 0.05599,-2.78915 -1.059713,-3.313598 -0.614005,-0.288619 -0.86239,-0.320613 -2.711179,-0.349226 l -1.755241,-0.02717 v 2.561638 2.561637 l 1.815249,-0.02421 c 1.635857,-0.02182 1.852104,-0.03647 2.188149,-0.148332 z M 47.283185,40.306384 C 46.906139,40.203553 46.459542,40.104858 46.09178,39.927036 45.537872,39.65921 44.869316,38.991973 44.59616,38.434355 44.186801,37.598711 44.212012,38.064318 44.212012,31.33885 v -6.009997 l 0.148674,-0.423614 c 0.402936,-1.148083 1.17111,-1.916666 2.287082,-2.288322 0.37809,-0.125916 0.506116,-0.141419 1.191406,-0.144261 0.661085,-0.0027 0.822986,0.01396 1.164929,0.120274 0.595275,0.185058 1.035871,0.453221 1.486263,0.904593 0.449979,0.450963 0.660883,0.788565 0.879408,1.407716 l 0.149512,0.423614 0.01696,5.824667 c 0.01247,4.281909 4.57e-4,5.922843 -0.04522,6.195328 -0.23016,1.372697 -1.24596,2.494357 -2.592816,2.863009 -0.295762,0.08095 -1.331762,0.171781 -1.615014,0.09453 z M 47.114534,21.704991 c -1.341417,-0.214308 -2.444982,-0.976489 -2.981194,-2.058979 -0.315291,-0.636498 -0.397929,-1.02378 -0.397485,-1.862753 3.44e-4,-0.654965 0.01856,-0.826158 0.124007,-1.164933 0.185739,-0.596807 0.460661,-1.0757 0.867847,-1.511711 1.023115,-1.095546 2.671432,-1.526125 4.318447,-1.128077 0.534902,0.129274 0.831488,0.255862 1.281725,0.547055 1.079475,0.698157 1.692604,1.878212 1.692604,3.257666 0,1.873164 -1.042218,3.262702 -2.841825,3.78888 -0.512306,0.149791 -1.542908,0.216122 -2.064126,0.132852 z m 8.808825,18.818707 c -0.05825,-0.01145 -0.236959,-0.04696 -0.397135,-0.07886 -0.898191,-0.178875 -1.748849,-0.79937 -2.192641,-1.599382 -0.327174,-0.589789 -0.428459,-1.023898 -0.428459,-1.836379 0,-0.606097 0.0186,-0.77037 0.122285,-1.079829 0.180845,-0.539779 0.445189,-1.033086 0.761637,-1.42134 0.154557,-0.189626 1.574157,-1.521334 3.154664,-2.959355 l 2.873658,-2.614582 -2.052906,-0.02921 c -1.64849,-0.02345 -2.099851,-0.04521 -2.29119,-0.110467 -0.509184,-0.173648 -0.878836,-0.396211 -1.219138,-0.734028 -0.599118,-0.594746 -0.859805,-1.261012 -0.859805,-2.197488 0,-0.937548 0.26307,-1.613744 0.854944,-2.19756 0.414689,-0.409042 0.751083,-0.599984 1.307949,-0.742406 0.394872,-0.100991 0.602721,-0.104746 5.797482,-0.104746 4.461851,0 5.456211,0.01306 5.785202,0.07601 1.831378,0.350401 3.055978,2.029535 2.832296,3.883574 -0.08568,0.710166 -0.449393,1.531536 -0.93774,2.117714 -0.139004,0.166848 -1.541745,1.482855 -3.117199,2.92446 l -2.864466,2.621101 2.206998,0.02951 c 1.887662,0.02525 2.256795,0.04311 2.551184,0.123595 1.025749,0.280445 1.825676,1.076182 2.094701,2.08374 0.104432,0.391087 0.106229,1.271164 0.0029,1.655103 -0.239865,0.895518 -0.793828,1.572727 -1.581486,1.933328 -0.640694,0.293322 -0.54477,0.289239 -6.658984,0.28357 -3.101636,-0.0027 -5.686995,-0.01461 -5.74524,-0.02607 z m 18.003521,0 c -0.05827,-0.01145 -0.236959,-0.04696 -0.397141,-0.07886 -0.898187,-0.178875 -1.748848,-0.79937 -2.192633,-1.599382 -0.327179,-0.589789 -0.428463,-1.023898 -0.428463,-1.836379 0,-0.606097 0.01863,-0.77037 0.12228,-1.079829 0.180851,-0.539779 0.445195,-1.033086 0.761645,-1.42134 0.154553,-0.189626 1.574155,-1.521334 3.154664,-2.959355 l 2.87366,-2.614582 -2.052913,-0.02921 c -1.648484,-0.02345 -2.09985,-0.04521 -2.291186,-0.110467 -0.50919,-0.173648 -0.878843,-0.396211 -1.219137,-0.734028 -0.599119,-0.594746 -0.859811,-1.261012 -0.859811,-2.197488 0,-0.937548 0.263073,-1.613744 0.854947,-2.19756 0.41469,-0.409042 0.751085,-0.599984 1.307956,-0.742406 0.394862,-0.100991 0.602718,-0.104746 5.79747,-0.104746 4.46186,0 5.456213,0.01306 5.785209,0.07601 1.831379,0.350401 3.055971,2.029535 2.83229,3.883574 -0.08568,0.710166 -0.449386,1.531536 -0.93774,2.117714 -0.138997,0.166848 -1.541738,1.482855 -3.117192,2.92446 l -2.864467,2.621101 2.206998,0.02951 c 1.887663,0.02525 2.256797,0.04311 2.551185,0.123595 1.025748,0.280445 1.825675,1.076182 2.094701,2.08374 0.104424,0.391087 0.106228,1.271164 0.0029,1.655103 -0.239865,0.895518 -0.793829,1.572727 -1.581488,1.933328 -0.640692,0.293322 -0.544769,0.289239 -6.658983,0.28357 -3.101637,-0.0027 -5.686991,-0.01461 -5.74524,-0.02607 z M 104.555,30.575 c 0.08,0.05333 1.03467,0.981 2.864,2.783 0.83333,0.806667 1.25,1.788333 1.25,2.945 0,1.075333 -0.39,2.03 -1.17,2.864 -0.78,0.806667 -1.748,1.21 -2.904,1.21 -1.10267,0 -2.05733,-0.39 -2.864,-1.17 l -4.034,-3.913 c -0.107333,-0.08 -0.215,-0.12 -0.323,-0.12 -0.214667,0 -0.322,0.403333 -0.322,1.21 0,1.129333 -0.403333,2.097333 -1.21,2.904 -0.806667,0.78 -1.775,1.17 -2.905,1.17 -1.129333,0 -2.097333,-0.39 -2.904,-1.17 -0.78,-0.806667 -1.17,-1.775 -1.17,-2.905 V 17.586 c 0,-1.129333 0.39,-2.084 1.17,-2.864 0.806667,-0.806667 1.774667,-1.21 2.904,-1.21 1.129333,0 2.097333,0.403333 2.904,1.21 0.806667,0.78 1.21,1.734667 1.21,2.864 v 6.293 c 0,0.268667 0.09433,0.443333 0.283,0.524 0.161333,0.08067 0.336,0.054 0.524,-0.08 0.108,-0.054 1.721667,-1.116667 4.841,-3.188 0.69933,-0.43 1.45233,-0.645 2.259,-0.645 1.47933,0 2.62233,0.605 3.429,1.815 0.43,0.7 0.645,1.453333 0.645,2.26 0,1.478667 -0.605,2.621333 -1.815,3.428 l -2.541,1.614 v 0.04 l -0.081,0.04 c -0.37667,0.242 -0.39,0.538 -0.04,0.888 z m 15.599,10.058 c -2.79667,0 -5.19,-0.981667 -7.18,-2.945 -1.96333,-1.99 -2.945,-4.383333 -2.945,-7.18 0,-2.77 0.98167,-5.136667 2.945,-7.1 1.99,-1.99 4.38333,-2.985 7.18,-2.985 2.77,0 5.09633,0.928 6.979,2.784 0.61867,0.618 0.928,1.371 0.928,2.259 0,0.886667 -0.30933,1.639667 -0.928,2.259 l -4.68,4.639 c -0.672,0.672 -1.344,1.008 -2.016,1.008 -0.96867,0 -1.722,-0.269 -2.26,-0.807 -0.53733,-0.538 -0.806,-1.250667 -0.806,-2.138 0,-0.86 0.30933,-1.599333 0.928,-2.218 l 0.806,-0.847 c 0.108,-0.08067 0.135,-0.161667 0.081,-0.243 -0.08,-0.05333 -0.18767,-0.06667 -0.323,-0.04 -0.53733,0.134667 -0.99433,0.403667 -1.371,0.807 -0.75333,0.726667 -1.13,1.600667 -1.13,2.622 0,1.048667 0.36333,1.949667 1.09,2.703 0.75333,0.726 1.654,1.089 2.702,1.089 1.022,0 1.896,-0.376667 2.622,-1.13 0.61867,-0.618 1.372,-0.927 2.26,-0.927 0.88667,0 1.63933,0.309 2.258,0.927 0.61867,0.618667 0.928,1.372 0.928,2.26 0,0.886667 -0.30933,1.639333 -0.928,2.258 -1.99,1.963333 -4.37,2.945 -7.14,2.945 z m 29.259,-15.786 v 5.607 c 0,0.376 -0.0267,0.779333 -0.08,1.21 v 7.382 c 0,3.012 -0.91467,5.418667 -2.744,7.22 -1.80133,1.802 -4.235,2.703 -7.301,2.703 -1.77467,0 -3.37467,-0.336 -4.8,-1.008 -1.42533,-0.645333 -2.138,-1.761333 -2.138,-3.348 0,-0.538 0.121,-1.049 0.363,-1.533 0.64533,-1.452667 1.76133,-2.179 3.348,-2.179 0.37667,0 0.901,0.107667 1.573,0.323 0.67267,0.215333 1.224,0.323 1.654,0.323 1.12933,0 1.869,-0.242 2.219,-0.726 0.134,-0.188667 0.16067,-0.336667 0.08,-0.444 -0.10733,-0.161333 -0.29533,-0.215 -0.564,-0.161 -0.45733,0.08 -0.955,0.12 -1.493,0.12 -2.716,0 -5.04233,-0.968 -6.979,-2.904 -1.936,-1.936 -2.904,-4.262 -2.904,-6.978 v -5.607 c 0,-1.13 0.39,-2.084667 1.17,-2.864 0.80667,-0.806667 1.77467,-1.21 2.904,-1.21 1.12933,0 2.09767,0.403333 2.905,1.21 0.80667,0.78 1.21,1.734667 1.21,2.864 v 5.607 c 0,0.456667 0.16133,0.86 0.484,1.21 0.34933,0.322667 0.75267,0.484 1.21,0.484 0.484,0 0.88733,-0.161333 1.21,-0.484 0.32267,-0.35 0.484,-0.753333 0.484,-1.21 v -5.607 c 0,-1.13 0.40333,-2.084667 1.21,-2.864 0.80667,-0.806667 1.775,-1.21 2.905,-1.21 1.12933,0 2.084,0.403333 2.864,1.21 0.80667,0.78 1.21,1.734667 1.21,2.864 z"
     inkscape:label="path" /></svg>
